<?xml version="1.0" standalone="no"?>
<!DOCTYPE svg PUBLIC "-//W3C//DTD SVG 1.0//EN" "http://www.w3.org/TR/2001/REC-SVG-20010904/DTD/svg10.dtd">
<svg xmlns="http://www.w3.org/2000/svg" xmlns:xlink="http://www.w3.org/1999/xlink" id="body_1" width="20" height="15">

<g transform="matrix(0.029296875 0 0 0.029296875 2.5000005 -0)">
    <path d="M64 480L448 480C 483.3 480 512 451.3 512 416L512 416L512 160C 512 124.7 483.3 96 448 96L448 96L298.5 96C 281.5 96 265.2 89.3 253.2 77.3L253.2 77.3L226.7 50.7C 214.7 38.7 198.4 32 181.4 32L181.4 32L64 32C 28.7 32 0 60.7 0 96L0 96L0 416C 0 451.3 28.7 480 64 480z" stroke="none" fill="#000000" fill-rule="nonzero" />
</g>
</svg>