<?xml version="1.0" standalone="no"?>
<!DOCTYPE svg PUBLIC "-//W3C//DTD SVG 1.0//EN" "http://www.w3.org/TR/2001/REC-SVG-20010904/DTD/svg10.dtd">
<svg xmlns="http://www.w3.org/2000/svg" xmlns:xlink="http://www.w3.org/1999/xlink" id="body_1" width="20" height="15">

<g transform="matrix(0.029296875 0 0 0.029296875 3.4375005 -0)">
    <path d="M352 224C 405 224 448 181 448 128C 448 75 405 32 352 32C 299 32 256 75 256 128C 256 132 256.2 136 256.7 139.9L256.7 139.9L162.6 186.9C 145.4 170.2 121.9 160 96 160C 43 160 0 203 0 256C 0 309 43 352 96 352C 121.9 352 145.4 341.8 162.6 325.1L162.6 325.1L256.7 372.1C 256.2 376 256 379.9 256 384C 256 437 299 480 352 480C 405 480 448 437 448 384C 448 331 405 288 352 288C 326.1 288 302.6 298.2 285.4 314.9L285.4 314.9L191.29999 267.9C 191.79999 264 191.99998 260.1 191.99998 256C 191.99998 251.9 191.79999 248 191.29999 244.1L191.29999 244.1L285.4 197.1C 302.6 213.8 326.1 224 352 224z" stroke="none" fill="#000000" fill-rule="nonzero" />
</g>
</svg>