<?xml version="1.0" standalone="no"?>
<!DOCTYPE svg PUBLIC "-//W3C//DTD SVG 1.0//EN" "http://www.w3.org/TR/2001/REC-SVG-20010904/DTD/svg10.dtd">
<svg xmlns="http://www.w3.org/2000/svg" xmlns:xlink="http://www.w3.org/1999/xlink" id="body_1" width="20" height="15">

<g transform="matrix(0.029296875 0 0 0.029296875 0.62500036 -0)">
    <path d="M144 160C 99.8 160 64 124.2 64 80C 64 35.800003 99.8 0 144 0C 188.2 0 224 35.8 224 80C 224 124.2 188.2 160 144 160zM512 160C 467.8 160 432 124.2 432 80C 432 35.800003 467.8 0 512 0C 556.2 0 592 35.8 592 80C 592 124.2 556.2 160 512 160zM0 298.7C 0 239.8 47.8 192 106.7 192L106.7 192L149.4 192C 165.29999 192 180.4 195.5 194 201.7C 192.7 208.9 192.1 216.4 192.1 224C 192.1 262.2 208.90001 296.5 235.40001 320C 235.20001 320 235.00002 320 234.70001 320L234.70001 320L21.3 320C 9.6 320 0 310.4 0 298.7zM405.3 320C 405.09998 320 404.9 320 404.59998 320C 431.19998 296.5 447.89996 262.2 447.89996 224C 447.89996 216.4 447.19995 209 445.99997 201.7C 459.59998 195.4 474.69998 192 490.59998 192L490.59998 192L533.3 192C 592.2 192 640 239.8 640 298.7C 640 310.5 630.4 320 618.7 320L618.7 320L405.3 320zM416 224C 416 277 373 320 320 320C 267 320 224 277 224 224C 224 171 267 128 320 128C 373 128 416 171 416 224zM128 485.3C 128 411.7 187.7 352 261.3 352L261.3 352L378.7 352C 452.3 352 512 411.7 512 485.3C 512 500 500.1 512 485.3 512L485.3 512L154.7 512C 140 512 128 500.1 128 485.3z" stroke="none" fill="#000000" fill-rule="nonzero" />
</g>
</svg>